<?xml version="1.0" standalone="no"?>
<!DOCTYPE svg PUBLIC "-//W3C//DTD SVG 20010904//EN"
 "http://www.w3.org/TR/2001/REC-SVG-20010904/DTD/svg10.dtd">
<svg version="1.0" xmlns="http://www.w3.org/2000/svg"
 width="340.000000pt" height="340.000000pt" viewBox="0 0 340.000000 340.000000"
 preserveAspectRatio="xMidYMid meet">
<metadata>
Created by potrace 1.14, written by Peter Selinger 2001-2017
</metadata>
<g transform="translate(0.000000,340.000000) scale(0.100000,-0.100000)"
fill="#000000" stroke="none">
<path d="M1534 2890 c-254 -66 -458 -276 -559 -575 -32 -96 -73 -331 -105
-600 -5 -44 -14 -107 -20 -140 -5 -33 -12 -74 -15 -91 -5 -30 -9 -32 -68 -43
-163 -32 -307 -111 -374 -206 -52 -75 -91 -171 -80 -199 9 -22 36 -20 101 9
87 39 90 35 45 -53 -40 -77 -43 -105 -13 -116 13 -5 101 14 188 40 15 5 13 -3
-13 -52 -19 -33 -31 -68 -29 -83 3 -23 8 -26 48 -29 44 -3 67 2 185 40 144 48
290 141 347 223 18 25 35 45 40 45 4 0 8 9 8 19 0 11 5 23 10 26 22 13 11 106
-20 170 -46 97 -125 151 -233 161 -29 3 -56 9 -61 14 -11 11 5 175 45 483 36
274 94 458 190 601 103 153 255 263 417 302 74 17 221 17 297 -1 211 -50 408
-232 495 -456 49 -129 64 -196 105 -454 8 -51 33 -275 40 -361 9 -96 3 -105
-83 -129 -108 -31 -188 -101 -212 -186 -13 -43 -13 -146 -1 -153 5 -3 23 -30
39 -59 17 -29 46 -67 65 -84 20 -17 33 -33 31 -36 -6 -5 193 -117 207 -117 12
0 11 -14 -1 -26 -7 -7 -6 -21 1 -44 l12 -34 23 52 c24 54 48 67 59 32 5 -17
15 -20 69 -20 35 0 67 -5 74 -12 18 -18 16 -98 -3 -98 -10 0 -15 10 -15 33 0
41 -13 62 -34 54 -11 -4 -16 -19 -16 -47 l0 -40 -49 0 -50 0 -3 53 -3 52 -18
-52 c-10 -29 -24 -53 -31 -53 -7 0 -22 21 -33 48 l-21 47 -1 -47 c-1 -36 -5
-48 -16 -48 -11 0 -15 11 -15 37 0 40 -14 37 -15 -4 0 -33 -33 -47 -69 -28
-14 8 -26 10 -26 4 0 -5 -7 -9 -15 -9 -10 0 -15 10 -15 33 0 19 -3 37 -7 40
-11 12 -43 -25 -43 -50 0 -24 -25 -32 -33 -10 -4 9 -6 9 -6 0 -1 -14 -31 -18
-31 -5 0 16 -70 4 -96 -17 -24 -19 -37 -22 -79 -17 -70 8 -72 8 -147 0 -56 -6
-68 -10 -68 -25 0 -9 12 -27 26 -38 23 -18 41 -21 123 -21 62 0 101 4 109 12
9 9 15 9 24 0 8 -8 46 -12 107 -12 82 0 98 3 117 21 18 17 26 19 42 10 27 -14
117 -14 145 0 12 6 37 25 54 42 29 27 35 29 58 19 35 -16 135 -15 174 1 28 12
30 15 17 27 -25 20 -20 77 8 95 13 8 31 13 40 9 12 -5 16 0 16 20 0 16 6 26
15 26 10 0 15 -10 15 -28 0 -31 -2 -30 109 -38 102 -8 153 18 171 87 7 24 18
40 31 44 19 6 20 9 6 22 -25 25 -95 27 -159 5 -48 -17 -58 -18 -58 -6 0 8 -18
49 -40 91 -22 42 -38 78 -36 80 3 3 36 -7 75 -22 87 -35 106 -30 97 26 -4 22
-17 62 -30 87 -73 142 -196 230 -386 274 -47 11 -91 22 -97 24 -9 2 -13 25
-13 68 0 36 -4 67 -9 70 -4 3 -11 34 -15 68 -30 282 -70 527 -107 643 -91 295
-309 520 -565 585 -104 26 -261 26 -360 0z m-600 -1530 c84 -12 159 -51 187
-97 32 -52 24 -147 -18 -205 -26 -37 -172 -148 -193 -148 -4 0 -15 30 -24 66
-34 134 -108 242 -202 296 -30 16 -54 33 -54 37 0 17 112 47 225 59 6 1 41 -3
79 -8z m1768 -11 c20 -5 53 -16 73 -25 l37 -15 -62 -37 c-101 -59 -176 -168
-202 -294 -7 -36 -17 -58 -25 -58 -49 0 -185 111 -214 175 -34 74 -21 151 33
202 67 63 226 86 360 52z m-2112 -91 c66 -21 59 -35 -43 -82 -117 -54 -125
-57 -133 -45 -11 18 96 139 124 139 7 0 30 -6 52 -12z m2373 -47 c64 -67 74
-94 29 -81 -59 16 -192 84 -192 97 0 14 53 41 86 42 13 1 42 -21 77 -58z
m-2214 -66 c17 -20 31 -44 31 -53 0 -21 -116 -90 -193 -116 -58 -20 -57 -20
-57 0 0 36 144 204 175 204 7 0 27 -16 44 -35z m2044 -19 c57 -57 117 -136
117 -156 0 -15 -50 -5 -110 23 -69 32 -150 85 -150 100 0 18 59 87 75 87 7 0
38 -24 68 -54z m-1956 -182 c13 -55 13 -60 -5 -75 -23 -18 -129 -45 -139 -36
-9 10 9 43 62 115 25 35 51 62 57 60 7 -3 18 -31 25 -64z m1822 29 c17 -21 31
-41 31 -45 0 -5 12 -26 26 -48 15 -22 24 -43 21 -46 -6 -6 -95 19 -126 36 -13
6 -21 21 -21 37 0 33 21 103 31 103 4 0 21 -17 38 -37z m189 -86 c13 -15 -1
-43 -16 -33 -5 3 -12 15 -15 26 -6 23 14 28 31 7z m-171 -104 c-3 -3 -11 -2
-17 2 -9 6 -9 10 1 16 14 8 27 -7 16 -18z"/>
<path d="M2160 2398 c-82 -61 -108 -84 -183 -155 -76 -73 -76 -73 -113 10 -30
66 -48 37 -29 -49 21 -91 106 -234 140 -234 8 0 30 14 50 31 33 30 35 30 35 9
0 -32 28 -75 62 -95 43 -25 103 -15 142 24 26 27 31 39 31 82 0 46 -4 54 -38
86 -21 19 -37 36 -35 38 2 1 36 23 76 49 39 25 72 52 72 59 0 31 -122 187
-146 187 -5 0 -34 -19 -64 -42z m20 -347 c0 -24 -25 -45 -45 -37 -24 9 -29 35
-10 56 13 15 22 17 36 9 11 -5 19 -18 19 -28z"/>
<path d="M1144 2373 c-26 -32 -54 -73 -63 -91 -15 -33 -15 -34 9 -53 14 -11
46 -34 73 -50 26 -17 47 -34 47 -38 0 -4 -13 -17 -30 -29 -16 -12 -34 -39 -41
-60 -28 -96 82 -187 169 -138 28 15 62 64 62 89 0 23 5 22 47 -10 42 -32 53
-28 105 47 43 60 73 134 83 204 6 39 5 48 -6 44 -8 -2 -21 -17 -29 -34 -44
-83 -33 -82 -108 -13 -104 96 -228 189 -250 189 -13 0 -38 -21 -68 -57z m100
-302 c31 -34 -10 -81 -42 -49 -15 15 -15 41 0 56 16 16 22 15 42 -7z"/>
<path d="M1612 2024 c-66 -17 -102 -36 -147 -76 -32 -27 -39 -30 -61 -19 -43
19 -65 -17 -23 -39 26 -15 22 -52 -9 -65 -28 -12 -25 -39 5 -43 22 -3 43 -54
25 -60 -5 -1 -17 -9 -27 -16 -24 -17 -13 -51 13 -41 43 18 60 15 112 -20 37
-25 59 -48 67 -70 19 -56 63 -113 100 -130 73 -35 149 12 192 119 13 31 27 56
31 56 4 0 30 15 57 34 47 32 50 33 77 19 25 -13 30 -13 43 0 14 13 12 17 -13
33 -16 10 -31 19 -32 20 -13 8 15 47 39 56 36 12 37 25 4 40 -35 16 -42 46
-16 64 38 27 21 65 -19 44 -17 -9 -26 -7 -52 15 -97 82 -241 113 -366 79z
m248 -67 c42 -18 90 -55 90 -69 0 -5 -10 -18 -22 -28 -13 -10 -20 -22 -15 -26
4 -4 13 -2 19 4 19 19 50 15 46 -5 -2 -12 -14 -19 -36 -21 -39 -4 -43 -22 -4
-22 34 0 43 -7 35 -26 -4 -11 -14 -13 -37 -8 -31 6 -31 6 -13 -14 24 -26 17
-36 -46 -69 -47 -25 -62 -27 -157 -27 -107 1 -159 15 -215 59 -19 15 -19 15 3
31 27 19 19 39 -9 23 -15 -7 -24 -7 -35 2 -23 19 -16 29 20 29 48 0 55 18 9
22 -27 2 -39 8 -41 21 -4 20 19 23 48 5 32 -20 36 1 6 26 l-29 22 24 23 c27
25 90 57 129 65 46 9 194 -2 230 -17z m-54 -385 c-10 -30 -46 -72 -62 -72 -10
0 -14 13 -14 45 0 42 2 45 33 53 37 11 52 2 43 -26z m-122 22 c21 -8 23 -94 3
-94 -15 0 -51 45 -61 78 -6 19 -4 22 18 22 13 0 31 -3 40 -6z"/>
<path d="M1623 1930 c-61 -25 -44 -103 31 -140 53 -25 82 -25 126 1 69 41 88
90 49 125 -17 15 -39 20 -103 21 -44 2 -91 -1 -103 -7z m71 -16 c25 -10 19
-41 -8 -48 -31 -8 -56 2 -56 20 0 12 11 20 47 33 1 1 8 -2 17 -5z"/>
<path d="M2841 722 c-7 -14 -7 -24 3 -38 12 -16 16 -16 30 -4 21 17 17 54 -6
58 -9 2 -21 -5 -27 -16z"/>
<path d="M2068 703 c7 -3 16 -2 19 1 4 3 -2 6 -13 5 -11 0 -14 -3 -6 -6z"/>
<path d="M2370 705 c0 -12 34 -34 53 -35 9 0 17 4 17 9 0 5 -8 11 -17 14 -10
2 -26 8 -35 12 -10 4 -18 4 -18 0z"/>
<path d="M2097 683 c-4 -3 -21 -6 -39 -5 -26 1 -29 -1 -16 -9 12 -6 28 -5 50
5 18 8 28 15 22 15 -6 1 -14 -2 -17 -6z"/>
<path d="M2110 660 c-8 -6 -34 -9 -57 -8 -53 3 -67 -9 -21 -17 34 -7 81 6 93
24 8 14 4 14 -15 1z"/>
</g>
</svg>
